 <svg  version="1.0" xmlns="http://www.w3.org/2000/svg"  width="300.000000pt" height="264.000000pt" viewBox="0 0 300.000000 264.000000"  preserveAspectRatio="xMidYMid meet">  <g transform="translate(0.000000,264.000000) scale(0.100000,-0.100000)" fill="#d4d4d4" stroke="none"> <path d="M890 2620 c-73 -21 -125 -69 -149 -139 -16 -48 -14 -79 10 -131 31 -68 65 -98 138 -120 35 -11 71 -26 79 -33 8 -6 30 -43 49 -82 41 -86 39 -97 -34 -219 -31 -50 -98 -162 -151 -249 -52 -87 -107 -171 -122 -187 -27 -29 -31 -30 -117 -30 -97 1 -116 8 -159 59 -73 87 -203 93 -287 13 -42 -40 -60 -80 -60 -138 0 -99 75 -182 172 -192 69 -6 115 13 182 74 l59 54 80 0 c51 0 91 -5 108 -14 21 -11 56 -71 150 -258 141 -278 138 -263 58 -367 -46 -60 -82 -81 -138 -81 -33 0 -95 -29 -120 -57 -48 -53 -61 -148 -29 -211 35 -68 113 -122 175 -122 44 0 110 32 144 69 51 57 59 105 37 231 -6 31 -1 45 37 100 72 109 64 107 422 80 201 -15 311 -27 333 -37 22 -10 41 -34 67 -83 42 -79 43 -95 15 -174 -25 -71 -19 -116 21 -180 55 -85 168 -113 256 -61 159 93 114 325 -71 369 -51 12 -74 34 -111 108 -27 54 -34 78 -30 102 8 40 317 546 348 568 26 20 113 31 170 21 29 -4 52 -19 91 -58 76 -76 152 -94 234 -54 103 50 146 170 95 264 -16 31 -74 83 -105 94 -35 14 -107 14 -141 1 -14 -5 -52 -34 -86 -65 l-60 -55 -80 0 c-119 0 -125 4 -210 172 -40 79 -95 185 -122 237 -59 111 -59 133 0 213 53 73 62 78 133 88 106 15 173 80 186 180 12 85 -58 185 -147 211 -83 25 -179 -22 -220 -107 -20 -39 -22 -55 -15 -112 12 -111 10 -119 -32 -180 -67 -96 -72 -97 -345 -77 -316 23 -392 31 -418 47 -29 18 -90 140 -90 180 1 18 7 44 15 58 24 42 19 136 -10 186 -40 69 -138 113 -205 94z m713 -859 c116 -40 202 -119 259 -237 20 -42 23 -64 23 -154 0 -97 -2 -110 -32 -172 -38 -81 -112 -154 -202 -200 -55 -28 -78 -34 -148 -37 -208 -8 -385 129 -428 333 -35 169 50 345 211 436 92 53 217 65 317 31z"/> <path d="M1417 1555 c-105 -37 -159 -151 -121 -255 54 -150 237 -185 342 -66 74 84 64 208 -22 284 -57 50 -128 63 -199 37z"/> </g> </svg> 